<?xml version="1.0" encoding="UTF-8"?>
<svg id="Layer_1" data-name="Layer 1" xmlns="http://www.w3.org/2000/svg" version="1.1" viewBox="0 0 281.2 281.2">
  <defs>
    <style>
      .cls-1 {
        fill: #61eb6e;
        fill-rule: evenodd;
        stroke-width: 0px;
      }
    </style>
  </defs>
  <path class="cls-1" d="M140.6,0C62.9,0,0,62.9,0,140.6s63,140.6,140.6,140.6,140.6-63,140.6-140.6S218.3,0,140.6,0ZM79.7,140.6c0-5.2,4.2-9.4,9.4-9.4h42.2v-42.2c0-5.2,4.2-9.4,9.4-9.4s9.4,4.2,9.4,9.4v42.2h42.2c5.2,0,9.4,4.2,9.4,9.4s-4.2,9.4-9.4,9.4h-42.2v42.2c0,5.2-4.2,9.4-9.4,9.4s-9.4-4.2-9.4-9.4v-42.2h-42.2c-5.2,0-9.4-4.2-9.4-9.4h0Z"/>
</svg>