<?xml version="1.0" encoding="UTF-8"?>
<svg id="Layer_1" data-name="Layer 1" xmlns="http://www.w3.org/2000/svg" version="1.1" viewBox="0 0 210.9 239.1">
  <defs>
    <style>
      .cls-1 {
        fill: #d62222;
        stroke-width: 0px;
      }
    </style>
  </defs>
  <path class="cls-1" d="M182.8,66.8H28.2c-3.3,0-5.9,2.8-5.9,6.1,0,.2,0,.4,0,.5l15.9,138.8c1.8,15.3,14.7,26.9,30.1,26.9h76.9c15.6,0,28.7-11.8,30.2-27.4l13.2-138.3c.2-1.6-.4-3.3-1.5-4.6-1.2-1.2-2.8-2-4.4-2h0ZM163.8,210.5c-.9,9.6-8.9,16.9-18.5,16.9h-77c-9.5,0-17.4-7.1-18.5-16.5l-15.1-132.3h141.6l-12.5,132Z"/>
  <path class="cls-1" d="M205.1,29.3h-62.1v-11.2c-.1-10-8.3-18.1-18.3-18.1h-38.5c-10,0-18.2,8.1-18.3,18.1v11.2H5.9c-3.2,0-5.9,2.6-5.9,5.9s2.6,5.9,5.9,5.9h199.2c3.2,0,5.9-2.6,5.9-5.9s-2.6-5.9-5.9-5.9h0ZM131.3,29.3h-51.6v-11.2c0-3.6,3-6.4,6.6-6.4h38.5c3.6,0,6.4,2.8,6.6,6.4v11.2h0Z"/>
</svg>