<?xml version="1.0" encoding="UTF-8"?>
<svg id="Layer_1" data-name="Layer 1" xmlns="http://www.w3.org/2000/svg" version="1.1" viewBox="0 0 300 300">
  <defs>
    <style>
      .cls-1 {
        fill: #61eb6e;
        fill-rule: evenodd;
        stroke-width: 0px;
      }
    </style>
  </defs>
  <path class="cls-1" d="M150,9.4C72.3,9.4,9.4,72.3,9.4,150s63,140.6,140.6,140.6,140.6-63,140.6-140.6S227.7,9.4,150,9.4ZM89.1,150c0-5.2,4.2-9.4,9.4-9.4h42.2v-42.2c0-5.2,4.2-9.4,9.4-9.4s9.4,4.2,9.4,9.4v42.2h42.2c5.2,0,9.4,4.2,9.4,9.4s-4.2,9.4-9.4,9.4h-42.2v42.2c0,5.2-4.2,9.4-9.4,9.4s-9.4-4.2-9.4-9.4v-42.2h-42.2c-5.2,0-9.4-4.2-9.4-9.4h0Z"/>
</svg>