<?xml version="1.0" encoding="UTF-8"?>
<svg id="Layer_1" data-name="Layer 1" xmlns="http://www.w3.org/2000/svg" version="1.1" viewBox="0 0 300 300">
  <defs>
    <style>
      .cls-1 {
        fill: #e5e5e5;
        stroke-width: 0px;
      }
    </style>
  </defs>
  <path class="cls-1" d="M120.3,235.4C54,235.4,0,182.6,0,117.7S54,0,120.3,0s120.3,52.8,120.3,117.7-53.9,117.7-120.3,117.7ZM120.3,31.4c-48.6,0-88.1,38.8-88.1,86.5s39.5,86.2,88.1,86.2,88.1-38.6,88.1-86.3S168.9,31.3,120.3,31.3h0Z"/>
  <path class="cls-1" d="M284.3,255.5l-79.8-68.8c-4.2,2.8-8.9,4.8-13.7,6l67.7,90.5c12,16,28.8,21.6,37.3,12.4,8.5-9.2,3.4-27.2-11.5-40h0Z"/>
</svg>