<?xml version="1.0" encoding="UTF-8"?>
<svg id="Layer_1" data-name="Layer 1" xmlns="http://www.w3.org/2000/svg" version="1.1" viewBox="0 0 300 300">
  <defs>
    <style>
      .cls-1 {
        fill: #e5e5e5;
        stroke-width: 0px;
      }
    </style>
  </defs>
  <path class="cls-1" d="M91.8,285h99.9c4.4,0,8.4-2.5,10.2-6.5,7-14.6,21.8-50,9.5-64.4-10.1-11.8-25.9-12.8-45.7-16.3v-9.9h1.2c3.7,0,6.8-3.1,6.8-6.8,0-3.7-3-6.7-6.8-6.8h-20.7c5.8-10.6,11.4-21.9,12.8-23.9.8-1.6,2.4-1.4,4-.3.4.3,5.5,3.7,9.7,1.4-2.5-.3-4.3-3.4-3.4-3.8,2.8-1,5.3-2.6,7.4-4.6,0,0-6.8-1.1-7-2.2,5.1-1.2,10.1-3.2,14.6-5.9,9.1-8.1,23.3-17.6,34.6-39.8-6.7,1.7-13.6,2.4-20.5,2.1,8.2-2.2,23.7-9.7,24.6-11.1,4.3-8.6,6.9-17.8,8-27.3,0,0-11.2,5.4-15.2,7.1,5.6-4.6,14.5-14.3,15-16.9,1.3-5.4,1.8-10.9,1.7-16.4,0-.9-2.9,2.9-3,2.1s2.3-6.1,2.4-6.8c.4-4,.2-11.7-1.7-12.8-2.2-1.4-21.4,4.1-36.7,20.6-1.7,1.8-.5,16.1-1.1,22.3-3.7-3.7-6.3-16.2-6.3-16.2-8.3,8.2-26.7,34.9-33.3,54.7-1.8,5.6-2.6,22.3-.5,26.9-5-3.1-8-17.9-8-17.9-2.5,9.7-.2,28.2,3.6,33.9.5.8-5.3,3.7-9.9,2,4.5,5.7,12.8,2.1,12.4,2.7-4.8,9.7-8.6,19.8-11.4,30.2h-22.3c-3.7,0-6.8,3-6.8,6.8,0,3.7,3,6.8,6.8,6.8,0,0,0,0,0,0h1.2v9.9c-19.7,3.5-35.6,4.4-45.7,16.3-12.3,14.4,2.5,49.8,9.5,64.4,1.9,3.9,5.9,6.5,10.2,6.5Z"/>
</svg>