<?xml version="1.0" encoding="UTF-8"?>
<svg id="Layer_1" data-name="Layer 1" xmlns="http://www.w3.org/2000/svg" version="1.1" viewBox="0 0 224.9 200.1">
  <defs>
    <style>
      .cls-1 {
        fill: #ccc;
        stroke-width: 0px;
      }
    </style>
  </defs>
  <path class="cls-1" d="M124.8,37.5c0,20.7-16.8,37.5-37.5,37.5s-37.5-16.8-37.5-37.5S66.6,0,87.3,0s37.5,16.8,37.5,37.5"/>
  <path class="cls-1" d="M87.4,100c-31,0-60.2,14.4-79.1,38.9-9.1,11.2-10.9,26.7-4.7,39.8s19.4,21.4,33.9,21.4h100c14.4,0,27.5-8.4,33.7-21.5,6.2-13,4.3-28.4-4.8-39.6-18.9-24.4-48-38.8-78.9-38.9h0,0Z"/>
  <path class="cls-1" d="M212.4,62.5h-12.5v-12.5c0-6.9-5.6-12.5-12.5-12.5s-12.5,5.6-12.5,12.5v12.5h-12.5c-6.9,0-12.5,5.6-12.5,12.5s5.6,12.5,12.5,12.5h12.5v12.5c0,6.9,5.6,12.5,12.5,12.5s12.5-5.6,12.5-12.5v-12.5h12.5c6.9,0,12.5-5.6,12.5-12.5s-5.6-12.5-12.5-12.5Z"/>
</svg>