<?xml version="1.0" encoding="UTF-8"?>
<svg id="Layer_1" data-name="Layer 1" xmlns="http://www.w3.org/2000/svg" version="1.1" viewBox="0 0 300 300">
  <defs>
    <style>
      .cls-1 {
        fill: #e5e5e5;
        stroke-width: 0px;
      }
    </style>
  </defs>
  <path class="cls-1" d="M256.5,103.6l-60.1-60.1c-2.1-2.1-5-2.9-7.8-2.3-2.8.6-5.1,2.6-6.2,5.4-3.4,9.2-4.3,19.6-2.4,29.5l-58.5,51.6c-31.7-11.3-56.7,6.2-57.8,6.9-2,1.5-3.3,3.7-3.5,6.2-.2,2.5.7,4.9,2.5,6.7l41.3,41.3-61.3,61.3c-2.1,2.1-2.1,5.4,0,7.5,1,1,2.4,1.5,3.7,1.5s2.7-.5,3.7-1.5l61.3-61.3,41.3,41.3c1.6,1.6,3.8,2.5,6,2.5s.5,0,.7,0c2.5-.2,4.8-1.5,6.2-3.5.9-1.2,5.4-8,8.3-18.5,3.6-13,3.1-26.5-1.4-39.3l51.6-58.5c9.9,1.8,20.2,1,29.5-2.4,2.7-1,4.7-3.3,5.3-6.2.6-2.8-.2-5.8-2.3-7.8h0ZM107.4,177.3l-35.5-35.5c6.2-3.6,25.4-12.8,48.7-3.3l5.5-.9,63.3-55.7,1.6-5.2c-1.9-7.7-1.8-15.9.4-23.4l55.4,55.4c-7.5,2.1-15.6,2.3-23.4.4l-5.2,1.6-55.7,63.3-.9,5.5c9.5,23.2.4,42.5-3.3,48.7l-38.2-38.2"/>
</svg>