<?xml version="1.0" encoding="UTF-8"?>
<svg id="Layer_1" data-name="Layer 1" xmlns="http://www.w3.org/2000/svg" version="1.1" viewBox="0 0 300 300">
  <defs>
    <style>
      .cls-1 {
        fill: #bababa;
        stroke-width: 0px;
      }
    </style>
  </defs>
  <path class="cls-1" d="M179.6,235.4c66.3,0,120.3-52.8,120.3-117.7S245.9,0,179.6,0,59.3,52.8,59.3,117.7s53.9,117.7,120.3,117.7ZM179.6,31.4c48.6,0,88.1,38.8,88.1,86.5s-39.5,86.2-88.1,86.2-88.1-38.6-88.1-86.3S131,31.3,179.6,31.3h0Z"/>
  <path class="cls-1" d="M15.6,255.5l79.8-68.8c4.2,2.8,8.9,4.8,13.7,6l-67.7,90.5c-12,16-28.8,21.6-37.3,12.4s-3.4-27.2,11.5-40h0Z"/>
</svg>